<?xml version="1.0" encoding="UTF-8" standalone="no"?>
<!DOCTYPE svg PUBLIC "-//W3C//DTD SVG 1.1//EN"
 "http://www.w3.org/Graphics/SVG/1.1/DTD/svg11.dtd">
<!-- Generated by graphviz version 12.2.1 (20241206.2353)
 -->
<!-- Pages: 1 -->
<svg width="2795pt" height="210pt"
 viewBox="0.00 0.00 2795.45 210.00" xmlns="http://www.w3.org/2000/svg" xmlns:xlink="http://www.w3.org/1999/xlink">
<g id="graph0" class="graph" transform="scale(1 1) rotate(0) translate(4 206)">
<polygon fill="white" stroke="none" points="-4,4 -4,-206 2791.45,-206 2791.45,4 -4,4"/>
<!-- 1689293591120 -->
<g id="node1" class="node">
<title>1689293591120</title>
<polygon fill="none" stroke="black" points="2314.95,-57.5 2314.95,-93.5 2495.7,-93.5 2495.7,-57.5 2314.95,-57.5"/>
<text text-anchor="middle" x="2324.83" y="-70.7" font-family="Times New Roman,serif" font-size="14.00"> </text>
<polyline fill="none" stroke="black" points="2334.7,-58 2334.7,-93.5"/>
<text text-anchor="middle" x="2374.58" y="-70.7" font-family="Times New Roman,serif" font-size="14.00">data 0.1464</text>
<polyline fill="none" stroke="black" points="2414.45,-58 2414.45,-93.5"/>
<text text-anchor="middle" x="2455.08" y="-70.7" font-family="Times New Roman,serif" font-size="14.00">grad 4.8284</text>
</g>
<!-- 1689293591360* -->
<g id="node14" class="node">
<title>1689293591360*</title>
<ellipse fill="none" stroke="black" cx="2549.7" cy="-98.5" rx="18" ry="18"/>
<text text-anchor="middle" x="2549.7" y="-93.45" font-family="Times New Roman,serif" font-size="14.00">*</text>
</g>
<!-- 1689293591120&#45;&gt;1689293591360* -->
<g id="edge15" class="edge">
<title>1689293591120&#45;&gt;1689293591360*</title>
<path fill="none" stroke="black" d="M2496.09,-90C2504.77,-91.4 2513.05,-92.74 2520.37,-93.92"/>
<polygon fill="black" stroke="black" points="2519.76,-97.37 2530.19,-95.51 2520.88,-90.46 2519.76,-97.37"/>
</g>
<!-- 1689293591120**&#45;1 -->
<g id="node2" class="node">
<title>1689293591120**&#45;1</title>
<ellipse fill="none" stroke="black" cx="2188.58" cy="-67.5" rx="27.81" ry="27.81"/>
<text text-anchor="middle" x="2188.58" y="-62.45" font-family="Times New Roman,serif" font-size="14.00">**&#45;1</text>
</g>
<!-- 1689293591120**&#45;1&#45;&gt;1689293591120 -->
<g id="edge1" class="edge">
<title>1689293591120**&#45;1&#45;&gt;1689293591120</title>
<path fill="none" stroke="black" d="M2216.77,-68.51C2238.88,-69.34 2271.53,-70.55 2303.42,-71.74"/>
<polygon fill="black" stroke="black" points="2303.01,-75.23 2313.13,-72.1 2303.27,-68.23 2303.01,-75.23"/>
</g>
<!-- 1689293590640 -->
<g id="node3" class="node">
<title>1689293590640</title>
<polygon fill="none" stroke="black" points="1583.7,-136.5 1583.7,-172.5 1768.95,-172.5 1768.95,-136.5 1583.7,-136.5"/>
<text text-anchor="middle" x="1593.58" y="-149.7" font-family="Times New Roman,serif" font-size="14.00"> </text>
<polyline fill="none" stroke="black" points="1603.45,-137 1603.45,-172.5"/>
<text text-anchor="middle" x="1645.58" y="-149.7" font-family="Times New Roman,serif" font-size="14.00">data &#45;1.0000</text>
<polyline fill="none" stroke="black" points="1687.7,-137 1687.7,-172.5"/>
<text text-anchor="middle" x="1728.33" y="-149.7" font-family="Times New Roman,serif" font-size="14.00">grad 0.1464</text>
</g>
<!-- 1689293590688+ -->
<g id="node5" class="node">
<title>1689293590688+</title>
<ellipse fill="none" stroke="black" cx="1822.95" cy="-131.5" rx="18" ry="18"/>
<text text-anchor="middle" x="1822.95" y="-126.45" font-family="Times New Roman,serif" font-size="14.00">+</text>
</g>
<!-- 1689293590640&#45;&gt;1689293590688+ -->
<g id="edge12" class="edge">
<title>1689293590640&#45;&gt;1689293590688+</title>
<path fill="none" stroke="black" d="M1769.33,-139.87C1778.04,-138.48 1786.33,-137.16 1793.66,-136"/>
<polygon fill="black" stroke="black" points="1794.14,-139.47 1803.47,-134.44 1793.04,-132.55 1794.14,-139.47"/>
</g>
<!-- 1689293590688 -->
<g id="node4" class="node">
<title>1689293590688</title>
<polygon fill="none" stroke="black" points="2098.2,-113.5 2098.2,-149.5 2278.95,-149.5 2278.95,-113.5 2098.2,-113.5"/>
<text text-anchor="middle" x="2108.08" y="-126.7" font-family="Times New Roman,serif" font-size="14.00"> </text>
<polyline fill="none" stroke="black" points="2117.95,-114 2117.95,-149.5"/>
<text text-anchor="middle" x="2157.83" y="-126.7" font-family="Times New Roman,serif" font-size="14.00">data 4.8284</text>
<polyline fill="none" stroke="black" points="2197.7,-114 2197.7,-149.5"/>
<text text-anchor="middle" x="2238.33" y="-126.7" font-family="Times New Roman,serif" font-size="14.00">grad 0.1464</text>
</g>
<!-- 1689293590688&#45;&gt;1689293591360* -->
<g id="edge25" class="edge">
<title>1689293590688&#45;&gt;1689293591360*</title>
<path fill="none" stroke="black" d="M2279.33,-123.36C2340.35,-117.81 2422.9,-110.26 2495.7,-103.5 2503.65,-102.76 2512.26,-101.95 2520.19,-101.21"/>
<polygon fill="black" stroke="black" points="2520.38,-104.7 2530.01,-100.28 2519.72,-97.73 2520.38,-104.7"/>
</g>
<!-- 1689293590688+&#45;&gt;1689293590688 -->
<g id="edge2" class="edge">
<title>1689293590688+&#45;&gt;1689293590688</title>
<path fill="none" stroke="black" d="M1841,-131.5C1884.2,-131.5 2000.64,-131.5 2086.69,-131.5"/>
<polygon fill="black" stroke="black" points="2086.58,-135 2096.58,-131.5 2086.58,-128 2086.58,-135"/>
</g>
<!-- 1689290828464 -->
<g id="node6" class="node">
<title>1689290828464</title>
<polygon fill="none" stroke="black" points="3.75,-55.5 3.75,-91.5 194.25,-91.5 194.25,-55.5 3.75,-55.5"/>
<text text-anchor="middle" x="18.5" y="-68.7" font-family="Times New Roman,serif" font-size="14.00">x2</text>
<polyline fill="none" stroke="black" points="33.25,-56 33.25,-91.5"/>
<text text-anchor="middle" x="73.12" y="-68.7" font-family="Times New Roman,serif" font-size="14.00">data 0.0000</text>
<polyline fill="none" stroke="black" points="113,-56 113,-91.5"/>
<text text-anchor="middle" x="153.62" y="-68.7" font-family="Times New Roman,serif" font-size="14.00">grad 0.5000</text>
</g>
<!-- 1689293589872* -->
<g id="node20" class="node">
<title>1689293589872*</title>
<ellipse fill="none" stroke="black" cx="252" cy="-73.5" rx="18" ry="18"/>
<text text-anchor="middle" x="252" y="-68.45" font-family="Times New Roman,serif" font-size="14.00">*</text>
</g>
<!-- 1689290828464&#45;&gt;1689293589872* -->
<g id="edge21" class="edge">
<title>1689290828464&#45;&gt;1689293589872*</title>
<path fill="none" stroke="black" d="M194.34,-73.5C204.44,-73.5 214.05,-73.5 222.4,-73.5"/>
<polygon fill="black" stroke="black" points="222.12,-77 232.12,-73.5 222.12,-70 222.12,-77"/>
</g>
<!-- 1689293590256 -->
<g id="node7" class="node">
<title>1689293590256</title>
<polygon fill="none" stroke="black" points="992.25,-109.5 992.25,-145.5 1173,-145.5 1173,-109.5 992.25,-109.5"/>
<text text-anchor="middle" x="1002.12" y="-122.7" font-family="Times New Roman,serif" font-size="14.00"> </text>
<polyline fill="none" stroke="black" points="1012,-110 1012,-145.5"/>
<text text-anchor="middle" x="1051.88" y="-122.7" font-family="Times New Roman,serif" font-size="14.00">data 2.0000</text>
<polyline fill="none" stroke="black" points="1091.75,-110 1091.75,-145.5"/>
<text text-anchor="middle" x="1132.38" y="-122.7" font-family="Times New Roman,serif" font-size="14.00">grad 0.2203</text>
</g>
<!-- 1689293590304* -->
<g id="node11" class="node">
<title>1689293590304*</title>
<ellipse fill="none" stroke="black" cx="1228.5" cy="-99.5" rx="18" ry="18"/>
<text text-anchor="middle" x="1228.5" y="-94.45" font-family="Times New Roman,serif" font-size="14.00">*</text>
</g>
<!-- 1689293590256&#45;&gt;1689293590304* -->
<g id="edge26" class="edge">
<title>1689293590256&#45;&gt;1689293590304*</title>
<path fill="none" stroke="black" d="M1173.11,-110.09C1182.41,-108.28 1191.29,-106.55 1199.08,-105.03"/>
<polygon fill="black" stroke="black" points="1199.7,-108.48 1208.85,-103.13 1198.36,-101.6 1199.7,-108.48"/>
</g>
<!-- 1689293586704 -->
<g id="node8" class="node">
<title>1689293586704</title>
<polygon fill="none" stroke="black" points="625.5,-82.5 625.5,-118.5 882.75,-118.5 882.75,-82.5 625.5,-82.5"/>
<text text-anchor="middle" x="671.38" y="-95.7" font-family="Times New Roman,serif" font-size="14.00">x1w1 + x2w2</text>
<polyline fill="none" stroke="black" points="717.25,-83 717.25,-118.5"/>
<text text-anchor="middle" x="759.38" y="-95.7" font-family="Times New Roman,serif" font-size="14.00">data &#45;6.0000</text>
<polyline fill="none" stroke="black" points="801.5,-83 801.5,-118.5"/>
<text text-anchor="middle" x="842.12" y="-95.7" font-family="Times New Roman,serif" font-size="14.00">grad 0.5000</text>
</g>
<!-- 1689293586752+ -->
<g id="node16" class="node">
<title>1689293586752+</title>
<ellipse fill="none" stroke="black" cx="936.75" cy="-72.5" rx="18" ry="18"/>
<text text-anchor="middle" x="936.75" y="-67.45" font-family="Times New Roman,serif" font-size="14.00">+</text>
</g>
<!-- 1689293586704&#45;&gt;1689293586752+ -->
<g id="edge20" class="edge">
<title>1689293586704&#45;&gt;1689293586752+</title>
<path fill="none" stroke="black" d="M874.35,-82.02C886.47,-80.14 897.82,-78.38 907.38,-76.9"/>
<polygon fill="black" stroke="black" points="907.62,-80.4 916.97,-75.41 906.55,-73.48 907.62,-80.4"/>
</g>
<!-- 1689293586704+ -->
<g id="node9" class="node">
<title>1689293586704+</title>
<ellipse fill="none" stroke="black" cx="571.5" cy="-100.5" rx="18" ry="18"/>
<text text-anchor="middle" x="571.5" y="-95.45" font-family="Times New Roman,serif" font-size="14.00">+</text>
</g>
<!-- 1689293586704+&#45;&gt;1689293586704 -->
<g id="edge3" class="edge">
<title>1689293586704+&#45;&gt;1689293586704</title>
<path fill="none" stroke="black" d="M589.82,-100.5C596.48,-100.5 604.73,-100.5 613.95,-100.5"/>
<polygon fill="black" stroke="black" points="613.67,-104 623.67,-100.5 613.67,-97 613.67,-104"/>
</g>
<!-- 1689293590304 -->
<g id="node10" class="node">
<title>1689293590304</title>
<polygon fill="none" stroke="black" points="1282.5,-81.5 1282.5,-117.5 1463.25,-117.5 1463.25,-81.5 1282.5,-81.5"/>
<text text-anchor="middle" x="1292.38" y="-94.7" font-family="Times New Roman,serif" font-size="14.00"> </text>
<polyline fill="none" stroke="black" points="1302.25,-82 1302.25,-117.5"/>
<text text-anchor="middle" x="1342.12" y="-94.7" font-family="Times New Roman,serif" font-size="14.00">data 1.7627</text>
<polyline fill="none" stroke="black" points="1382,-82 1382,-117.5"/>
<text text-anchor="middle" x="1422.62" y="-94.7" font-family="Times New Roman,serif" font-size="14.00">grad 0.2500</text>
</g>
<!-- 1689293590448exp -->
<g id="node26" class="node">
<title>1689293590448exp</title>
<ellipse fill="none" stroke="black" cx="1523.48" cy="-99.5" rx="24.23" ry="24.23"/>
<text text-anchor="middle" x="1523.48" y="-94.45" font-family="Times New Roman,serif" font-size="14.00">exp</text>
</g>
<!-- 1689293590304&#45;&gt;1689293590448exp -->
<g id="edge24" class="edge">
<title>1689293590304&#45;&gt;1689293590448exp</title>
<path fill="none" stroke="black" d="M1463.74,-99.5C1472.15,-99.5 1480.27,-99.5 1487.66,-99.5"/>
<polygon fill="black" stroke="black" points="1487.45,-103 1497.45,-99.5 1487.45,-96 1487.45,-103"/>
</g>
<!-- 1689293590304*&#45;&gt;1689293590304 -->
<g id="edge4" class="edge">
<title>1689293590304*&#45;&gt;1689293590304</title>
<path fill="none" stroke="black" d="M1246.96,-99.5C1253.66,-99.5 1261.89,-99.5 1270.89,-99.5"/>
<polygon fill="black" stroke="black" points="1270.69,-103 1280.69,-99.5 1270.69,-96 1270.69,-103"/>
</g>
<!-- 1689290829088 -->
<g id="node12" class="node">
<title>1689290829088</title>
<polygon fill="none" stroke="black" points="2.25,-0.5 2.25,-36.5 195.75,-36.5 195.75,-0.5 2.25,-0.5"/>
<text text-anchor="middle" x="18.5" y="-13.7" font-family="Times New Roman,serif" font-size="14.00">w2</text>
<polyline fill="none" stroke="black" points="34.75,-1 34.75,-36.5"/>
<text text-anchor="middle" x="74.62" y="-13.7" font-family="Times New Roman,serif" font-size="14.00">data 1.0000</text>
<polyline fill="none" stroke="black" points="114.5,-1 114.5,-36.5"/>
<text text-anchor="middle" x="155.12" y="-13.7" font-family="Times New Roman,serif" font-size="14.00">grad 0.0000</text>
</g>
<!-- 1689290829088&#45;&gt;1689293589872* -->
<g id="edge14" class="edge">
<title>1689290829088&#45;&gt;1689293589872*</title>
<path fill="none" stroke="black" d="M173.89,-36.99C182.11,-39.6 190.29,-42.44 198,-45.5 207.49,-49.26 217.49,-54.25 226.22,-58.98"/>
<polygon fill="black" stroke="black" points="224.35,-61.95 234.79,-63.77 227.77,-55.84 224.35,-61.95"/>
</g>
<!-- 1689293591360 -->
<g id="node13" class="node">
<title>1689293591360</title>
<polygon fill="none" stroke="black" points="2603.7,-80.5 2603.7,-116.5 2787.45,-116.5 2787.45,-80.5 2603.7,-80.5"/>
<text text-anchor="middle" x="2615.08" y="-93.7" font-family="Times New Roman,serif" font-size="14.00">o</text>
<polyline fill="none" stroke="black" points="2626.45,-81 2626.45,-116.5"/>
<text text-anchor="middle" x="2666.33" y="-93.7" font-family="Times New Roman,serif" font-size="14.00">data 0.7071</text>
<polyline fill="none" stroke="black" points="2706.2,-81 2706.2,-116.5"/>
<text text-anchor="middle" x="2746.83" y="-93.7" font-family="Times New Roman,serif" font-size="14.00">grad 1.0000</text>
</g>
<!-- 1689293591360*&#45;&gt;1689293591360 -->
<g id="edge5" class="edge">
<title>1689293591360*&#45;&gt;1689293591360</title>
<path fill="none" stroke="black" d="M2568.06,-98.5C2574.75,-98.5 2582.98,-98.5 2591.99,-98.5"/>
<polygon fill="black" stroke="black" points="2591.82,-102 2601.82,-98.5 2591.82,-95 2591.82,-102"/>
</g>
<!-- 1689293586752 -->
<g id="node15" class="node">
<title>1689293586752</title>
<polygon fill="none" stroke="black" points="990.75,-54.5 990.75,-90.5 1174.5,-90.5 1174.5,-54.5 990.75,-54.5"/>
<text text-anchor="middle" x="1002.12" y="-67.7" font-family="Times New Roman,serif" font-size="14.00">n</text>
<polyline fill="none" stroke="black" points="1013.5,-55 1013.5,-90.5"/>
<text text-anchor="middle" x="1053.38" y="-67.7" font-family="Times New Roman,serif" font-size="14.00">data 0.8814</text>
<polyline fill="none" stroke="black" points="1093.25,-55 1093.25,-90.5"/>
<text text-anchor="middle" x="1133.88" y="-67.7" font-family="Times New Roman,serif" font-size="14.00">grad 0.5000</text>
</g>
<!-- 1689293586752&#45;&gt;1689293590304* -->
<g id="edge19" class="edge">
<title>1689293586752&#45;&gt;1689293590304*</title>
<path fill="none" stroke="black" d="M1174.74,-89.6C1183.57,-91.26 1191.97,-92.83 1199.38,-94.22"/>
<polygon fill="black" stroke="black" points="1198.49,-97.62 1208.97,-96.02 1199.78,-90.74 1198.49,-97.62"/>
</g>
<!-- 1689293586752+&#45;&gt;1689293586752 -->
<g id="edge6" class="edge">
<title>1689293586752+&#45;&gt;1689293586752</title>
<path fill="none" stroke="black" d="M955.1,-72.5C961.8,-72.5 970.02,-72.5 979.04,-72.5"/>
<polygon fill="black" stroke="black" points="978.86,-76 988.86,-72.5 978.86,-69 978.86,-76"/>
</g>
<!-- 1689293589824 -->
<g id="node17" class="node">
<title>1689293589824</title>
<polygon fill="none" stroke="black" points="306,-110.5 306,-146.5 517.5,-146.5 517.5,-110.5 306,-110.5"/>
<text text-anchor="middle" x="329" y="-123.7" font-family="Times New Roman,serif" font-size="14.00">x1w1</text>
<polyline fill="none" stroke="black" points="352,-111 352,-146.5"/>
<text text-anchor="middle" x="394.12" y="-123.7" font-family="Times New Roman,serif" font-size="14.00">data &#45;6.0000</text>
<polyline fill="none" stroke="black" points="436.25,-111 436.25,-146.5"/>
<text text-anchor="middle" x="476.88" y="-123.7" font-family="Times New Roman,serif" font-size="14.00">grad 0.5000</text>
</g>
<!-- 1689293589824&#45;&gt;1689293586704+ -->
<g id="edge18" class="edge">
<title>1689293589824&#45;&gt;1689293586704+</title>
<path fill="none" stroke="black" d="M516.65,-110.06C526.04,-108.39 534.9,-106.82 542.62,-105.45"/>
<polygon fill="black" stroke="black" points="543,-108.94 552.24,-103.74 541.78,-102.04 543,-108.94"/>
</g>
<!-- 1689293589824* -->
<g id="node18" class="node">
<title>1689293589824*</title>
<ellipse fill="none" stroke="black" cx="252" cy="-128.5" rx="18" ry="18"/>
<text text-anchor="middle" x="252" y="-123.45" font-family="Times New Roman,serif" font-size="14.00">*</text>
</g>
<!-- 1689293589824*&#45;&gt;1689293589824 -->
<g id="edge7" class="edge">
<title>1689293589824*&#45;&gt;1689293589824</title>
<path fill="none" stroke="black" d="M270.48,-128.5C277.1,-128.5 285.22,-128.5 294.2,-128.5"/>
<polygon fill="black" stroke="black" points="294.01,-132 304.01,-128.5 294.01,-125 294.01,-132"/>
</g>
<!-- 1689293589872 -->
<g id="node19" class="node">
<title>1689293589872</title>
<polygon fill="none" stroke="black" points="308.25,-55.5 308.25,-91.5 515.25,-91.5 515.25,-55.5 308.25,-55.5"/>
<text text-anchor="middle" x="331.25" y="-68.7" font-family="Times New Roman,serif" font-size="14.00">x2w2</text>
<polyline fill="none" stroke="black" points="354.25,-56 354.25,-91.5"/>
<text text-anchor="middle" x="394.12" y="-68.7" font-family="Times New Roman,serif" font-size="14.00">data 0.0000</text>
<polyline fill="none" stroke="black" points="434,-56 434,-91.5"/>
<text text-anchor="middle" x="474.62" y="-68.7" font-family="Times New Roman,serif" font-size="14.00">grad 0.5000</text>
</g>
<!-- 1689293589872&#45;&gt;1689293586704+ -->
<g id="edge22" class="edge">
<title>1689293589872&#45;&gt;1689293586704+</title>
<path fill="none" stroke="black" d="M515.33,-91.06C525.02,-92.72 534.18,-94.28 542.16,-95.65"/>
<polygon fill="black" stroke="black" points="541.32,-99.06 551.77,-97.29 542.5,-92.16 541.32,-99.06"/>
</g>
<!-- 1689293589872*&#45;&gt;1689293589872 -->
<g id="edge8" class="edge">
<title>1689293589872*&#45;&gt;1689293589872</title>
<path fill="none" stroke="black" d="M270.48,-73.5C277.65,-73.5 286.59,-73.5 296.47,-73.5"/>
<polygon fill="black" stroke="black" points="296.45,-77 306.45,-73.5 296.45,-70 296.45,-77"/>
</g>
<!-- 1689291057936 -->
<g id="node21" class="node">
<title>1689291057936</title>
<polygon fill="none" stroke="black" points="662.25,-27.5 662.25,-63.5 846,-63.5 846,-27.5 662.25,-27.5"/>
<text text-anchor="middle" x="673.62" y="-40.7" font-family="Times New Roman,serif" font-size="14.00">b</text>
<polyline fill="none" stroke="black" points="685,-28 685,-63.5"/>
<text text-anchor="middle" x="724.88" y="-40.7" font-family="Times New Roman,serif" font-size="14.00">data 6.8814</text>
<polyline fill="none" stroke="black" points="764.75,-28 764.75,-63.5"/>
<text text-anchor="middle" x="805.38" y="-40.7" font-family="Times New Roman,serif" font-size="14.00">grad 0.5000</text>
</g>
<!-- 1689291057936&#45;&gt;1689293586752+ -->
<g id="edge27" class="edge">
<title>1689291057936&#45;&gt;1689293586752+</title>
<path fill="none" stroke="black" d="M846.5,-59.16C868.75,-62.48 890.91,-65.8 907.59,-68.29"/>
<polygon fill="black" stroke="black" points="906.78,-71.71 917.18,-69.72 907.81,-64.78 906.78,-71.71"/>
</g>
<!-- 1689293590928 -->
<g id="node22" class="node">
<title>1689293590928</title>
<polygon fill="none" stroke="black" points="1876.95,-49.5 1876.95,-85.5 2062.2,-85.5 2062.2,-49.5 1876.95,-49.5"/>
<text text-anchor="middle" x="1886.83" y="-62.7" font-family="Times New Roman,serif" font-size="14.00"> </text>
<polyline fill="none" stroke="black" points="1896.7,-50 1896.7,-85.5"/>
<text text-anchor="middle" x="1936.58" y="-62.7" font-family="Times New Roman,serif" font-size="14.00">data 6.8284</text>
<polyline fill="none" stroke="black" points="1976.45,-50 1976.45,-85.5"/>
<text text-anchor="middle" x="2019.33" y="-62.7" font-family="Times New Roman,serif" font-size="14.00">grad &#45;0.1036</text>
</g>
<!-- 1689293590928&#45;&gt;1689293591120**&#45;1 -->
<g id="edge23" class="edge">
<title>1689293590928&#45;&gt;1689293591120**&#45;1</title>
<path fill="none" stroke="black" d="M2062.6,-67.5C2092.84,-67.5 2124.83,-67.5 2148.87,-67.5"/>
<polygon fill="black" stroke="black" points="2148.82,-71 2158.82,-67.5 2148.82,-64 2148.82,-71"/>
</g>
<!-- 1689293590928+ -->
<g id="node23" class="node">
<title>1689293590928+</title>
<ellipse fill="none" stroke="black" cx="1822.95" cy="-67.5" rx="18" ry="18"/>
<text text-anchor="middle" x="1822.95" y="-62.45" font-family="Times New Roman,serif" font-size="14.00">+</text>
</g>
<!-- 1689293590928+&#45;&gt;1689293590928 -->
<g id="edge9" class="edge">
<title>1689293590928+&#45;&gt;1689293590928</title>
<path fill="none" stroke="black" d="M1841.4,-67.5C1848.07,-67.5 1856.26,-67.5 1865.24,-67.5"/>
<polygon fill="black" stroke="black" points="1865.02,-71 1875.02,-67.5 1865.02,-64 1865.02,-71"/>
</g>
<!-- 1689293590880 -->
<g id="node24" class="node">
<title>1689293590880</title>
<polygon fill="none" stroke="black" points="1583.7,-26.5 1583.7,-62.5 1768.95,-62.5 1768.95,-26.5 1583.7,-26.5"/>
<text text-anchor="middle" x="1593.58" y="-39.7" font-family="Times New Roman,serif" font-size="14.00"> </text>
<polyline fill="none" stroke="black" points="1603.45,-27 1603.45,-62.5"/>
<text text-anchor="middle" x="1643.33" y="-39.7" font-family="Times New Roman,serif" font-size="14.00">data 1.0000</text>
<polyline fill="none" stroke="black" points="1683.2,-27 1683.2,-62.5"/>
<text text-anchor="middle" x="1726.08" y="-39.7" font-family="Times New Roman,serif" font-size="14.00">grad &#45;0.1036</text>
</g>
<!-- 1689293590880&#45;&gt;1689293590928+ -->
<g id="edge17" class="edge">
<title>1689293590880&#45;&gt;1689293590928+</title>
<path fill="none" stroke="black" d="M1769.33,-59.13C1778.04,-60.52 1786.33,-61.84 1793.66,-63"/>
<polygon fill="black" stroke="black" points="1793.04,-66.45 1803.47,-64.56 1794.14,-59.53 1793.04,-66.45"/>
</g>
<!-- 1689293590448 -->
<g id="node25" class="node">
<title>1689293590448</title>
<polygon fill="none" stroke="black" points="1585.95,-81.5 1585.95,-117.5 1766.7,-117.5 1766.7,-81.5 1585.95,-81.5"/>
<text text-anchor="middle" x="1595.83" y="-94.7" font-family="Times New Roman,serif" font-size="14.00"> </text>
<polyline fill="none" stroke="black" points="1605.7,-82 1605.7,-117.5"/>
<text text-anchor="middle" x="1645.58" y="-94.7" font-family="Times New Roman,serif" font-size="14.00">data 5.8284</text>
<polyline fill="none" stroke="black" points="1685.45,-82 1685.45,-117.5"/>
<text text-anchor="middle" x="1726.08" y="-94.7" font-family="Times New Roman,serif" font-size="14.00">grad 0.0429</text>
</g>
<!-- 1689293590448&#45;&gt;1689293590688+ -->
<g id="edge11" class="edge">
<title>1689293590448&#45;&gt;1689293590688+</title>
<path fill="none" stroke="black" d="M1760.62,-117.93C1772.58,-120.58 1784.13,-123.13 1793.93,-125.3"/>
<polygon fill="black" stroke="black" points="1792.91,-128.66 1803.43,-127.4 1794.42,-121.82 1792.91,-128.66"/>
</g>
<!-- 1689293590448&#45;&gt;1689293590928+ -->
<g id="edge16" class="edge">
<title>1689293590448&#45;&gt;1689293590928+</title>
<path fill="none" stroke="black" d="M1760.62,-81.07C1772.58,-78.42 1784.13,-75.87 1793.93,-73.7"/>
<polygon fill="black" stroke="black" points="1794.42,-77.18 1803.43,-71.6 1792.91,-70.34 1794.42,-77.18"/>
</g>
<!-- 1689293590448exp&#45;&gt;1689293590448 -->
<g id="edge10" class="edge">
<title>1689293590448exp&#45;&gt;1689293590448</title>
<path fill="none" stroke="black" d="M1548.05,-99.5C1555.61,-99.5 1564.52,-99.5 1574.06,-99.5"/>
<polygon fill="black" stroke="black" points="1573.99,-103 1583.99,-99.5 1573.99,-96 1573.99,-103"/>
</g>
<!-- 1689293169600 -->
<g id="node27" class="node">
<title>1689293169600</title>
<polygon fill="none" stroke="black" points="1.5,-165.5 1.5,-201.5 196.5,-201.5 196.5,-165.5 1.5,-165.5"/>
<text text-anchor="middle" x="16.25" y="-178.7" font-family="Times New Roman,serif" font-size="14.00">x1</text>
<polyline fill="none" stroke="black" points="31,-166 31,-201.5"/>
<text text-anchor="middle" x="70.88" y="-178.7" font-family="Times New Roman,serif" font-size="14.00">data 2.0000</text>
<polyline fill="none" stroke="black" points="110.75,-166 110.75,-201.5"/>
<text text-anchor="middle" x="153.62" y="-178.7" font-family="Times New Roman,serif" font-size="14.00">grad &#45;1.5000</text>
</g>
<!-- 1689293169600&#45;&gt;1689293589824* -->
<g id="edge13" class="edge">
<title>1689293169600&#45;&gt;1689293589824*</title>
<path fill="none" stroke="black" d="M173.89,-165.01C182.11,-162.4 190.29,-159.56 198,-156.5 207.49,-152.74 217.49,-147.75 226.22,-143.02"/>
<polygon fill="black" stroke="black" points="227.77,-146.16 234.79,-138.23 224.35,-140.05 227.77,-146.16"/>
</g>
<!-- 1689290826688 -->
<g id="node28" class="node">
<title>1689290826688</title>
<polygon fill="none" stroke="black" points="0,-110.5 0,-146.5 198,-146.5 198,-110.5 0,-110.5"/>
<text text-anchor="middle" x="16.25" y="-123.7" font-family="Times New Roman,serif" font-size="14.00">w1</text>
<polyline fill="none" stroke="black" points="32.5,-111 32.5,-146.5"/>
<text text-anchor="middle" x="74.62" y="-123.7" font-family="Times New Roman,serif" font-size="14.00">data &#45;3.0000</text>
<polyline fill="none" stroke="black" points="116.75,-111 116.75,-146.5"/>
<text text-anchor="middle" x="157.38" y="-123.7" font-family="Times New Roman,serif" font-size="14.00">grad 1.0000</text>
</g>
<!-- 1689290826688&#45;&gt;1689293589824* -->
<g id="edge28" class="edge">
<title>1689290826688&#45;&gt;1689293589824*</title>
<path fill="none" stroke="black" d="M198.19,-128.5C206.74,-128.5 214.87,-128.5 222.07,-128.5"/>
<polygon fill="black" stroke="black" points="222.05,-132 232.05,-128.5 222.05,-125 222.05,-132"/>
</g>
</g>
</svg>
