<?xml version="1.0" encoding="UTF-8" standalone="no"?>
<!DOCTYPE svg PUBLIC "-//W3C//DTD SVG 1.1//EN"
 "http://www.w3.org/Graphics/SVG/1.1/DTD/svg11.dtd">
<!-- Generated by graphviz version 12.2.1 (20241206.2353)
 -->
<!-- Pages: 1 -->
<svg width="1492pt" height="210pt"
 viewBox="0.00 0.00 1491.82 210.00" xmlns="http://www.w3.org/2000/svg" xmlns:xlink="http://www.w3.org/1999/xlink">
<g id="graph0" class="graph" transform="scale(1 1) rotate(0) translate(4 206)">
<polygon fill="white" stroke="none" points="-4,4 -4,-206 1487.82,-206 1487.82,4 -4,4"/>
<!-- 1737022180864 -->
<g id="node1" class="node">
<title>1737022180864</title>
<polygon fill="none" stroke="black" points="2.25,-165.5 2.25,-201.5 195.75,-201.5 195.75,-165.5 2.25,-165.5"/>
<text text-anchor="middle" x="18.5" y="-178.7" font-family="Times New Roman,serif" font-size="14.00">w2</text>
<polyline fill="none" stroke="black" points="34.75,-166 34.75,-201.5"/>
<text text-anchor="middle" x="74.62" y="-178.7" font-family="Times New Roman,serif" font-size="14.00">data 1.0000</text>
<polyline fill="none" stroke="black" points="114.5,-166 114.5,-201.5"/>
<text text-anchor="middle" x="155.12" y="-178.7" font-family="Times New Roman,serif" font-size="14.00">grad 0.0000</text>
</g>
<!-- 1737022180336* -->
<g id="node15" class="node">
<title>1737022180336*</title>
<ellipse fill="none" stroke="black" cx="252" cy="-128.5" rx="18" ry="18"/>
<text text-anchor="middle" x="252" y="-123.45" font-family="Times New Roman,serif" font-size="14.00">*</text>
</g>
<!-- 1737022180864&#45;&gt;1737022180336* -->
<g id="edge12" class="edge">
<title>1737022180864&#45;&gt;1737022180336*</title>
<path fill="none" stroke="black" d="M173.89,-165.01C182.11,-162.4 190.29,-159.56 198,-156.5 207.49,-152.74 217.49,-147.75 226.22,-143.02"/>
<polygon fill="black" stroke="black" points="227.77,-146.16 234.79,-138.23 224.35,-140.05 227.77,-146.16"/>
</g>
<!-- 1737022180528 -->
<g id="node2" class="node">
<title>1737022180528</title>
<polygon fill="none" stroke="black" points="3.75,-110.5 3.75,-146.5 194.25,-146.5 194.25,-110.5 3.75,-110.5"/>
<text text-anchor="middle" x="18.5" y="-123.7" font-family="Times New Roman,serif" font-size="14.00">x2</text>
<polyline fill="none" stroke="black" points="33.25,-111 33.25,-146.5"/>
<text text-anchor="middle" x="73.12" y="-123.7" font-family="Times New Roman,serif" font-size="14.00">data 0.0000</text>
<polyline fill="none" stroke="black" points="113,-111 113,-146.5"/>
<text text-anchor="middle" x="153.62" y="-123.7" font-family="Times New Roman,serif" font-size="14.00">grad 0.5000</text>
</g>
<!-- 1737022180528&#45;&gt;1737022180336* -->
<g id="edge14" class="edge">
<title>1737022180528&#45;&gt;1737022180336*</title>
<path fill="none" stroke="black" d="M194.34,-128.5C204.44,-128.5 214.05,-128.5 222.4,-128.5"/>
<polygon fill="black" stroke="black" points="222.12,-132 232.12,-128.5 222.12,-125 222.12,-132"/>
</g>
<!-- 1737022180048 -->
<g id="node3" class="node">
<title>1737022180048</title>
<polygon fill="none" stroke="black" points="306,-55.5 306,-91.5 517.5,-91.5 517.5,-55.5 306,-55.5"/>
<text text-anchor="middle" x="329" y="-68.7" font-family="Times New Roman,serif" font-size="14.00">x1w1</text>
<polyline fill="none" stroke="black" points="352,-56 352,-91.5"/>
<text text-anchor="middle" x="394.12" y="-68.7" font-family="Times New Roman,serif" font-size="14.00">data &#45;6.0000</text>
<polyline fill="none" stroke="black" points="436.25,-56 436.25,-91.5"/>
<text text-anchor="middle" x="476.88" y="-68.7" font-family="Times New Roman,serif" font-size="14.00">grad 0.5000</text>
</g>
<!-- 1737022180096+ -->
<g id="node6" class="node">
<title>1737022180096+</title>
<ellipse fill="none" stroke="black" cx="571.5" cy="-100.5" rx="18" ry="18"/>
<text text-anchor="middle" x="571.5" y="-95.45" font-family="Times New Roman,serif" font-size="14.00">+</text>
</g>
<!-- 1737022180048&#45;&gt;1737022180096+ -->
<g id="edge8" class="edge">
<title>1737022180048&#45;&gt;1737022180096+</title>
<path fill="none" stroke="black" d="M517.97,-91.51C526.66,-93 534.87,-94.4 542.1,-95.64"/>
<polygon fill="black" stroke="black" points="541.32,-99.06 551.77,-97.29 542.5,-92.16 541.32,-99.06"/>
</g>
<!-- 1737022180048* -->
<g id="node4" class="node">
<title>1737022180048*</title>
<ellipse fill="none" stroke="black" cx="252" cy="-73.5" rx="18" ry="18"/>
<text text-anchor="middle" x="252" y="-68.45" font-family="Times New Roman,serif" font-size="14.00">*</text>
</g>
<!-- 1737022180048*&#45;&gt;1737022180048 -->
<g id="edge1" class="edge">
<title>1737022180048*&#45;&gt;1737022180048</title>
<path fill="none" stroke="black" d="M270.48,-73.5C277.1,-73.5 285.22,-73.5 294.2,-73.5"/>
<polygon fill="black" stroke="black" points="294.01,-77 304.01,-73.5 294.01,-70 294.01,-77"/>
</g>
<!-- 1737022180096 -->
<g id="node5" class="node">
<title>1737022180096</title>
<polygon fill="none" stroke="black" points="625.5,-82.5 625.5,-118.5 882.75,-118.5 882.75,-82.5 625.5,-82.5"/>
<text text-anchor="middle" x="671.37" y="-95.7" font-family="Times New Roman,serif" font-size="14.00">x1w1 + x2w2</text>
<polyline fill="none" stroke="black" points="717.25,-83 717.25,-118.5"/>
<text text-anchor="middle" x="759.37" y="-95.7" font-family="Times New Roman,serif" font-size="14.00">data &#45;6.0000</text>
<polyline fill="none" stroke="black" points="801.5,-83 801.5,-118.5"/>
<text text-anchor="middle" x="842.12" y="-95.7" font-family="Times New Roman,serif" font-size="14.00">grad 0.5000</text>
</g>
<!-- 1737022178224+ -->
<g id="node12" class="node">
<title>1737022178224+</title>
<ellipse fill="none" stroke="black" cx="936.75" cy="-72.5" rx="18" ry="18"/>
<text text-anchor="middle" x="936.75" y="-67.45" font-family="Times New Roman,serif" font-size="14.00">+</text>
</g>
<!-- 1737022180096&#45;&gt;1737022178224+ -->
<g id="edge13" class="edge">
<title>1737022180096&#45;&gt;1737022178224+</title>
<path fill="none" stroke="black" d="M874.35,-82.02C886.47,-80.14 897.82,-78.38 907.38,-76.9"/>
<polygon fill="black" stroke="black" points="907.62,-80.4 916.97,-75.41 906.55,-73.48 907.62,-80.4"/>
</g>
<!-- 1737022180096+&#45;&gt;1737022180096 -->
<g id="edge2" class="edge">
<title>1737022180096+&#45;&gt;1737022180096</title>
<path fill="none" stroke="black" d="M589.82,-100.5C596.48,-100.5 604.73,-100.5 613.95,-100.5"/>
<polygon fill="black" stroke="black" points="613.67,-104 623.67,-100.5 613.67,-97 613.67,-104"/>
</g>
<!-- 1737022179664 -->
<g id="node7" class="node">
<title>1737022179664</title>
<polygon fill="none" stroke="black" points="1.5,-55.5 1.5,-91.5 196.5,-91.5 196.5,-55.5 1.5,-55.5"/>
<text text-anchor="middle" x="16.25" y="-68.7" font-family="Times New Roman,serif" font-size="14.00">x1</text>
<polyline fill="none" stroke="black" points="31,-56 31,-91.5"/>
<text text-anchor="middle" x="70.88" y="-68.7" font-family="Times New Roman,serif" font-size="14.00">data 2.0000</text>
<polyline fill="none" stroke="black" points="110.75,-56 110.75,-91.5"/>
<text text-anchor="middle" x="153.62" y="-68.7" font-family="Times New Roman,serif" font-size="14.00">grad &#45;1.5000</text>
</g>
<!-- 1737022179664&#45;&gt;1737022180048* -->
<g id="edge9" class="edge">
<title>1737022179664&#45;&gt;1737022180048*</title>
<path fill="none" stroke="black" d="M196.91,-73.5C206,-73.5 214.64,-73.5 222.23,-73.5"/>
<polygon fill="black" stroke="black" points="222.06,-77 232.06,-73.5 222.06,-70 222.06,-77"/>
</g>
<!-- 1737022180192 -->
<g id="node8" class="node">
<title>1737022180192</title>
<polygon fill="none" stroke="black" points="1300.07,-54.5 1300.07,-90.5 1483.82,-90.5 1483.82,-54.5 1300.07,-54.5"/>
<text text-anchor="middle" x="1311.44" y="-67.7" font-family="Times New Roman,serif" font-size="14.00">o</text>
<polyline fill="none" stroke="black" points="1322.82,-55 1322.82,-90.5"/>
<text text-anchor="middle" x="1362.69" y="-67.7" font-family="Times New Roman,serif" font-size="14.00">data 0.7071</text>
<polyline fill="none" stroke="black" points="1402.57,-55 1402.57,-90.5"/>
<text text-anchor="middle" x="1443.19" y="-67.7" font-family="Times New Roman,serif" font-size="14.00">grad 1.0000</text>
</g>
<!-- 1737022180192tanh -->
<g id="node9" class="node">
<title>1737022180192tanh</title>
<ellipse fill="none" stroke="black" cx="1237.28" cy="-72.5" rx="26.78" ry="26.78"/>
<text text-anchor="middle" x="1237.28" y="-67.45" font-family="Times New Roman,serif" font-size="14.00">tanh</text>
</g>
<!-- 1737022180192tanh&#45;&gt;1737022180192 -->
<g id="edge3" class="edge">
<title>1737022180192tanh&#45;&gt;1737022180192</title>
<path fill="none" stroke="black" d="M1264.53,-72.5C1271.66,-72.5 1279.84,-72.5 1288.53,-72.5"/>
<polygon fill="black" stroke="black" points="1288.26,-76 1298.26,-72.5 1288.26,-69 1288.26,-76"/>
</g>
<!-- 1737022180720 -->
<g id="node10" class="node">
<title>1737022180720</title>
<polygon fill="none" stroke="black" points="0,-0.5 0,-36.5 198,-36.5 198,-0.5 0,-0.5"/>
<text text-anchor="middle" x="16.25" y="-13.7" font-family="Times New Roman,serif" font-size="14.00">w1</text>
<polyline fill="none" stroke="black" points="32.5,-1 32.5,-36.5"/>
<text text-anchor="middle" x="74.62" y="-13.7" font-family="Times New Roman,serif" font-size="14.00">data &#45;3.0000</text>
<polyline fill="none" stroke="black" points="116.75,-1 116.75,-36.5"/>
<text text-anchor="middle" x="157.38" y="-13.7" font-family="Times New Roman,serif" font-size="14.00">grad 1.0000</text>
</g>
<!-- 1737022180720&#45;&gt;1737022180048* -->
<g id="edge7" class="edge">
<title>1737022180720&#45;&gt;1737022180048*</title>
<path fill="none" stroke="black" d="M173.89,-36.99C182.11,-39.6 190.29,-42.44 198,-45.5 207.49,-49.26 217.49,-54.25 226.22,-58.98"/>
<polygon fill="black" stroke="black" points="224.35,-61.95 234.79,-63.77 227.77,-55.84 224.35,-61.95"/>
</g>
<!-- 1737022178224 -->
<g id="node11" class="node">
<title>1737022178224</title>
<polygon fill="none" stroke="black" points="990.75,-54.5 990.75,-90.5 1174.5,-90.5 1174.5,-54.5 990.75,-54.5"/>
<text text-anchor="middle" x="1002.12" y="-67.7" font-family="Times New Roman,serif" font-size="14.00">n</text>
<polyline fill="none" stroke="black" points="1013.5,-55 1013.5,-90.5"/>
<text text-anchor="middle" x="1053.38" y="-67.7" font-family="Times New Roman,serif" font-size="14.00">data 0.8814</text>
<polyline fill="none" stroke="black" points="1093.25,-55 1093.25,-90.5"/>
<text text-anchor="middle" x="1133.88" y="-67.7" font-family="Times New Roman,serif" font-size="14.00">grad 0.5000</text>
</g>
<!-- 1737022178224&#45;&gt;1737022180192tanh -->
<g id="edge11" class="edge">
<title>1737022178224&#45;&gt;1737022180192tanh</title>
<path fill="none" stroke="black" d="M1174.63,-72.5C1183,-72.5 1191.12,-72.5 1198.57,-72.5"/>
<polygon fill="black" stroke="black" points="1198.52,-76 1208.52,-72.5 1198.52,-69 1198.52,-76"/>
</g>
<!-- 1737022178224+&#45;&gt;1737022178224 -->
<g id="edge4" class="edge">
<title>1737022178224+&#45;&gt;1737022178224</title>
<path fill="none" stroke="black" d="M955.1,-72.5C961.8,-72.5 970.02,-72.5 979.04,-72.5"/>
<polygon fill="black" stroke="black" points="978.86,-76 988.86,-72.5 978.86,-69 978.86,-76"/>
</g>
<!-- 1737022180816 -->
<g id="node13" class="node">
<title>1737022180816</title>
<polygon fill="none" stroke="black" points="662.25,-27.5 662.25,-63.5 846,-63.5 846,-27.5 662.25,-27.5"/>
<text text-anchor="middle" x="673.62" y="-40.7" font-family="Times New Roman,serif" font-size="14.00">b</text>
<polyline fill="none" stroke="black" points="685,-28 685,-63.5"/>
<text text-anchor="middle" x="724.87" y="-40.7" font-family="Times New Roman,serif" font-size="14.00">data 6.8814</text>
<polyline fill="none" stroke="black" points="764.75,-28 764.75,-63.5"/>
<text text-anchor="middle" x="805.37" y="-40.7" font-family="Times New Roman,serif" font-size="14.00">grad 0.5000</text>
</g>
<!-- 1737022180816&#45;&gt;1737022178224+ -->
<g id="edge6" class="edge">
<title>1737022180816&#45;&gt;1737022178224+</title>
<path fill="none" stroke="black" d="M846.5,-59.16C868.75,-62.48 890.91,-65.8 907.59,-68.29"/>
<polygon fill="black" stroke="black" points="906.78,-71.71 917.18,-69.72 907.81,-64.78 906.78,-71.71"/>
</g>
<!-- 1737022180336 -->
<g id="node14" class="node">
<title>1737022180336</title>
<polygon fill="none" stroke="black" points="308.25,-110.5 308.25,-146.5 515.25,-146.5 515.25,-110.5 308.25,-110.5"/>
<text text-anchor="middle" x="331.25" y="-123.7" font-family="Times New Roman,serif" font-size="14.00">x2w2</text>
<polyline fill="none" stroke="black" points="354.25,-111 354.25,-146.5"/>
<text text-anchor="middle" x="394.12" y="-123.7" font-family="Times New Roman,serif" font-size="14.00">data 0.0000</text>
<polyline fill="none" stroke="black" points="434,-111 434,-146.5"/>
<text text-anchor="middle" x="474.62" y="-123.7" font-family="Times New Roman,serif" font-size="14.00">grad 0.5000</text>
</g>
<!-- 1737022180336&#45;&gt;1737022180096+ -->
<g id="edge10" class="edge">
<title>1737022180336&#45;&gt;1737022180096+</title>
<path fill="none" stroke="black" d="M515.33,-110.29C525.02,-108.57 534.18,-106.95 542.16,-105.53"/>
<polygon fill="black" stroke="black" points="542.54,-109.02 551.77,-103.82 541.31,-102.13 542.54,-109.02"/>
</g>
<!-- 1737022180336*&#45;&gt;1737022180336 -->
<g id="edge5" class="edge">
<title>1737022180336*&#45;&gt;1737022180336</title>
<path fill="none" stroke="black" d="M270.48,-128.5C277.65,-128.5 286.59,-128.5 296.47,-128.5"/>
<polygon fill="black" stroke="black" points="296.45,-132 306.45,-128.5 296.45,-125 296.45,-132"/>
</g>
</g>
</svg>
