<?xml version="1.0" encoding="UTF-8" standalone="no"?>
<!DOCTYPE svg PUBLIC "-//W3C//DTD SVG 1.1//EN"
 "http://www.w3.org/Graphics/SVG/1.1/DTD/svg11.dtd">
<!-- Generated by graphviz version 14.0.0 (20250921.2048)
 -->
<!-- Pages: 1 -->
<svg width="1492pt" height="210pt"
 viewBox="0.00 0.00 1492.00 210.00" xmlns="http://www.w3.org/2000/svg" xmlns:xlink="http://www.w3.org/1999/xlink">
<g id="graph0" class="graph" transform="scale(1 1) rotate(0) translate(4 206)">
<polygon fill="white" stroke="none" points="-4,4 -4,-206 1487.82,-206 1487.82,4 -4,4"/>
<!-- 2242113338400 -->
<g id="node1" class="node">
<title>2242113338400</title>
<polygon fill="none" stroke="black" points="625.5,-82.5 625.5,-118.5 882.75,-118.5 882.75,-82.5 625.5,-82.5"/>
<text xml:space="preserve" text-anchor="middle" x="671.37" y="-95.7" font-family="Times New Roman,serif" font-size="14.00">x1w1 + x2w2</text>
<polyline fill="none" stroke="black" points="717.25,-83 717.25,-118.5"/>
<text xml:space="preserve" text-anchor="middle" x="759.37" y="-95.7" font-family="Times New Roman,serif" font-size="14.00">data &#45;6.0000</text>
<polyline fill="none" stroke="black" points="801.5,-83 801.5,-118.5"/>
<text xml:space="preserve" text-anchor="middle" x="842.12" y="-95.7" font-family="Times New Roman,serif" font-size="14.00">grad 0.0000</text>
</g>
<!-- 2242113338224+ -->
<g id="node12" class="node">
<title>2242113338224+</title>
<ellipse fill="none" stroke="black" cx="936.75" cy="-127.5" rx="18" ry="18"/>
<text xml:space="preserve" text-anchor="middle" x="936.75" y="-122.45" font-family="Times New Roman,serif" font-size="14.00">+</text>
</g>
<!-- 2242113338400&#45;&gt;2242113338224+ -->
<g id="edge6" class="edge">
<title>2242113338400&#45;&gt;2242113338224+</title>
<path fill="none" stroke="black" d="M878.6,-118.96C889.1,-120.53 898.9,-121.99 907.33,-123.25"/>
<polygon fill="black" stroke="black" points="906.69,-126.69 917.1,-124.71 907.72,-119.77 906.69,-126.69"/>
</g>
<!-- 2242113338400+ -->
<g id="node2" class="node">
<title>2242113338400+</title>
<ellipse fill="none" stroke="black" cx="571.5" cy="-100.5" rx="18" ry="18"/>
<text xml:space="preserve" text-anchor="middle" x="571.5" y="-95.45" font-family="Times New Roman,serif" font-size="14.00">+</text>
</g>
<!-- 2242113338400+&#45;&gt;2242113338400 -->
<g id="edge1" class="edge">
<title>2242113338400+&#45;&gt;2242113338400</title>
<path fill="none" stroke="black" d="M589.82,-100.5C596.48,-100.5 604.73,-100.5 613.95,-100.5"/>
<polygon fill="black" stroke="black" points="613.67,-104 623.67,-100.5 613.67,-97 613.67,-104"/>
</g>
<!-- 2242115461168 -->
<g id="node3" class="node">
<title>2242115461168</title>
<polygon fill="none" stroke="black" points="1300.07,-109.5 1300.07,-145.5 1483.82,-145.5 1483.82,-109.5 1300.07,-109.5"/>
<text xml:space="preserve" text-anchor="middle" x="1311.44" y="-122.7" font-family="Times New Roman,serif" font-size="14.00">o</text>
<polyline fill="none" stroke="black" points="1322.82,-110 1322.82,-145.5"/>
<text xml:space="preserve" text-anchor="middle" x="1362.69" y="-122.7" font-family="Times New Roman,serif" font-size="14.00">data 0.7071</text>
<polyline fill="none" stroke="black" points="1402.57,-110 1402.57,-145.5"/>
<text xml:space="preserve" text-anchor="middle" x="1443.19" y="-122.7" font-family="Times New Roman,serif" font-size="14.00">grad 0.0000</text>
</g>
<!-- 2242115461168tanh -->
<g id="node4" class="node">
<title>2242115461168tanh</title>
<ellipse fill="none" stroke="black" cx="1237.28" cy="-127.5" rx="26.78" ry="26.78"/>
<text xml:space="preserve" text-anchor="middle" x="1237.28" y="-122.45" font-family="Times New Roman,serif" font-size="14.00">tanh</text>
</g>
<!-- 2242115461168tanh&#45;&gt;2242115461168 -->
<g id="edge2" class="edge">
<title>2242115461168tanh&#45;&gt;2242115461168</title>
<path fill="none" stroke="black" d="M1264.53,-127.5C1271.66,-127.5 1279.84,-127.5 1288.53,-127.5"/>
<polygon fill="black" stroke="black" points="1288.26,-131 1298.26,-127.5 1288.26,-124 1288.26,-131"/>
</g>
<!-- 2242112059536 -->
<g id="node5" class="node">
<title>2242112059536</title>
<polygon fill="none" stroke="black" points="3.75,-165.5 3.75,-201.5 194.25,-201.5 194.25,-165.5 3.75,-165.5"/>
<text xml:space="preserve" text-anchor="middle" x="18.5" y="-178.7" font-family="Times New Roman,serif" font-size="14.00">x1</text>
<polyline fill="none" stroke="black" points="33.25,-166 33.25,-201.5"/>
<text xml:space="preserve" text-anchor="middle" x="73.12" y="-178.7" font-family="Times New Roman,serif" font-size="14.00">data 2.0000</text>
<polyline fill="none" stroke="black" points="113,-166 113,-201.5"/>
<text xml:space="preserve" text-anchor="middle" x="153.62" y="-178.7" font-family="Times New Roman,serif" font-size="14.00">grad 0.0000</text>
</g>
<!-- 2242112125648* -->
<g id="node7" class="node">
<title>2242112125648*</title>
<ellipse fill="none" stroke="black" cx="252" cy="-128.5" rx="18" ry="18"/>
<text xml:space="preserve" text-anchor="middle" x="252" y="-123.45" font-family="Times New Roman,serif" font-size="14.00">*</text>
</g>
<!-- 2242112059536&#45;&gt;2242112125648* -->
<g id="edge9" class="edge">
<title>2242112059536&#45;&gt;2242112125648*</title>
<path fill="none" stroke="black" d="M173.89,-165.01C182.11,-162.4 190.29,-159.56 198,-156.5 207.49,-152.74 217.49,-147.75 226.22,-143.02"/>
<polygon fill="black" stroke="black" points="227.77,-146.16 234.79,-138.23 224.35,-140.05 227.77,-146.16"/>
</g>
<!-- 2242112125648 -->
<g id="node6" class="node">
<title>2242112125648</title>
<polygon fill="none" stroke="black" points="306,-110.5 306,-146.5 517.5,-146.5 517.5,-110.5 306,-110.5"/>
<text xml:space="preserve" text-anchor="middle" x="329" y="-123.7" font-family="Times New Roman,serif" font-size="14.00">x1w1</text>
<polyline fill="none" stroke="black" points="352,-111 352,-146.5"/>
<text xml:space="preserve" text-anchor="middle" x="394.12" y="-123.7" font-family="Times New Roman,serif" font-size="14.00">data &#45;6.0000</text>
<polyline fill="none" stroke="black" points="436.25,-111 436.25,-146.5"/>
<text xml:space="preserve" text-anchor="middle" x="476.88" y="-123.7" font-family="Times New Roman,serif" font-size="14.00">grad 0.0000</text>
</g>
<!-- 2242112125648&#45;&gt;2242113338400+ -->
<g id="edge8" class="edge">
<title>2242112125648&#45;&gt;2242113338400+</title>
<path fill="none" stroke="black" d="M516.65,-110.06C526.04,-108.39 534.9,-106.82 542.62,-105.45"/>
<polygon fill="black" stroke="black" points="543,-108.94 552.24,-103.74 541.78,-102.04 543,-108.94"/>
</g>
<!-- 2242112125648*&#45;&gt;2242112125648 -->
<g id="edge3" class="edge">
<title>2242112125648*&#45;&gt;2242112125648</title>
<path fill="none" stroke="black" d="M270.48,-128.5C277.1,-128.5 285.22,-128.5 294.2,-128.5"/>
<polygon fill="black" stroke="black" points="294.01,-132 304.01,-128.5 294.01,-125 294.01,-132"/>
</g>
<!-- 2242103038720 -->
<g id="node8" class="node">
<title>2242103038720</title>
<polygon fill="none" stroke="black" points="662.25,-137.5 662.25,-173.5 846,-173.5 846,-137.5 662.25,-137.5"/>
<text xml:space="preserve" text-anchor="middle" x="673.62" y="-150.7" font-family="Times New Roman,serif" font-size="14.00">b</text>
<polyline fill="none" stroke="black" points="685,-138 685,-173.5"/>
<text xml:space="preserve" text-anchor="middle" x="724.87" y="-150.7" font-family="Times New Roman,serif" font-size="14.00">data 6.8814</text>
<polyline fill="none" stroke="black" points="764.75,-138 764.75,-173.5"/>
<text xml:space="preserve" text-anchor="middle" x="805.37" y="-150.7" font-family="Times New Roman,serif" font-size="14.00">grad 0.0000</text>
</g>
<!-- 2242103038720&#45;&gt;2242113338224+ -->
<g id="edge12" class="edge">
<title>2242103038720&#45;&gt;2242113338224+</title>
<path fill="none" stroke="black" d="M846.5,-141.34C868.75,-137.89 890.91,-134.45 907.59,-131.87"/>
<polygon fill="black" stroke="black" points="907.84,-135.37 917.19,-130.38 906.77,-128.45 907.84,-135.37"/>
</g>
<!-- 2242115520784 -->
<g id="node9" class="node">
<title>2242115520784</title>
<polygon fill="none" stroke="black" points="2.25,-55.5 2.25,-91.5 195.75,-91.5 195.75,-55.5 2.25,-55.5"/>
<text xml:space="preserve" text-anchor="middle" x="18.5" y="-68.7" font-family="Times New Roman,serif" font-size="14.00">w2</text>
<polyline fill="none" stroke="black" points="34.75,-56 34.75,-91.5"/>
<text xml:space="preserve" text-anchor="middle" x="74.62" y="-68.7" font-family="Times New Roman,serif" font-size="14.00">data 1.0000</text>
<polyline fill="none" stroke="black" points="114.5,-56 114.5,-91.5"/>
<text xml:space="preserve" text-anchor="middle" x="155.12" y="-68.7" font-family="Times New Roman,serif" font-size="14.00">grad 0.0000</text>
</g>
<!-- 2242112125840* -->
<g id="node15" class="node">
<title>2242112125840*</title>
<ellipse fill="none" stroke="black" cx="252" cy="-73.5" rx="18" ry="18"/>
<text xml:space="preserve" text-anchor="middle" x="252" y="-68.45" font-family="Times New Roman,serif" font-size="14.00">*</text>
</g>
<!-- 2242115520784&#45;&gt;2242112125840* -->
<g id="edge13" class="edge">
<title>2242115520784&#45;&gt;2242112125840*</title>
<path fill="none" stroke="black" d="M196.06,-73.5C205.52,-73.5 214.52,-73.5 222.4,-73.5"/>
<polygon fill="black" stroke="black" points="222.23,-77 232.23,-73.5 222.23,-70 222.23,-77"/>
</g>
<!-- 2242115520336 -->
<g id="node10" class="node">
<title>2242115520336</title>
<polygon fill="none" stroke="black" points="0,-110.5 0,-146.5 198,-146.5 198,-110.5 0,-110.5"/>
<text xml:space="preserve" text-anchor="middle" x="16.25" y="-123.7" font-family="Times New Roman,serif" font-size="14.00">w1</text>
<polyline fill="none" stroke="black" points="32.5,-111 32.5,-146.5"/>
<text xml:space="preserve" text-anchor="middle" x="74.62" y="-123.7" font-family="Times New Roman,serif" font-size="14.00">data &#45;3.0000</text>
<polyline fill="none" stroke="black" points="116.75,-111 116.75,-146.5"/>
<text xml:space="preserve" text-anchor="middle" x="157.38" y="-123.7" font-family="Times New Roman,serif" font-size="14.00">grad 0.0000</text>
</g>
<!-- 2242115520336&#45;&gt;2242112125648* -->
<g id="edge7" class="edge">
<title>2242115520336&#45;&gt;2242112125648*</title>
<path fill="none" stroke="black" d="M198.19,-128.5C206.74,-128.5 214.87,-128.5 222.07,-128.5"/>
<polygon fill="black" stroke="black" points="222.05,-132 232.05,-128.5 222.05,-125 222.05,-132"/>
</g>
<!-- 2242113338224 -->
<g id="node11" class="node">
<title>2242113338224</title>
<polygon fill="none" stroke="black" points="990.75,-109.5 990.75,-145.5 1174.5,-145.5 1174.5,-109.5 990.75,-109.5"/>
<text xml:space="preserve" text-anchor="middle" x="1002.12" y="-122.7" font-family="Times New Roman,serif" font-size="14.00">n</text>
<polyline fill="none" stroke="black" points="1013.5,-110 1013.5,-145.5"/>
<text xml:space="preserve" text-anchor="middle" x="1053.38" y="-122.7" font-family="Times New Roman,serif" font-size="14.00">data 0.8814</text>
<polyline fill="none" stroke="black" points="1093.25,-110 1093.25,-145.5"/>
<text xml:space="preserve" text-anchor="middle" x="1133.88" y="-122.7" font-family="Times New Roman,serif" font-size="14.00">grad 0.0000</text>
</g>
<!-- 2242113338224&#45;&gt;2242115461168tanh -->
<g id="edge14" class="edge">
<title>2242113338224&#45;&gt;2242115461168tanh</title>
<path fill="none" stroke="black" d="M1174.63,-127.5C1183,-127.5 1191.12,-127.5 1198.57,-127.5"/>
<polygon fill="black" stroke="black" points="1198.52,-131 1208.52,-127.5 1198.52,-124 1198.52,-131"/>
</g>
<!-- 2242113338224+&#45;&gt;2242113338224 -->
<g id="edge4" class="edge">
<title>2242113338224+&#45;&gt;2242113338224</title>
<path fill="none" stroke="black" d="M955.1,-127.5C961.8,-127.5 970.02,-127.5 979.04,-127.5"/>
<polygon fill="black" stroke="black" points="978.86,-131 988.86,-127.5 978.86,-124 978.86,-131"/>
</g>
<!-- 2242112059776 -->
<g id="node13" class="node">
<title>2242112059776</title>
<polygon fill="none" stroke="black" points="3.75,-0.5 3.75,-36.5 194.25,-36.5 194.25,-0.5 3.75,-0.5"/>
<text xml:space="preserve" text-anchor="middle" x="18.5" y="-13.7" font-family="Times New Roman,serif" font-size="14.00">x2</text>
<polyline fill="none" stroke="black" points="33.25,-1 33.25,-36.5"/>
<text xml:space="preserve" text-anchor="middle" x="73.12" y="-13.7" font-family="Times New Roman,serif" font-size="14.00">data 0.0000</text>
<polyline fill="none" stroke="black" points="113,-1 113,-36.5"/>
<text xml:space="preserve" text-anchor="middle" x="153.62" y="-13.7" font-family="Times New Roman,serif" font-size="14.00">grad 0.0000</text>
</g>
<!-- 2242112059776&#45;&gt;2242112125840* -->
<g id="edge11" class="edge">
<title>2242112059776&#45;&gt;2242112125840*</title>
<path fill="none" stroke="black" d="M170.67,-36.92C179.96,-39.86 189.27,-43.07 198,-46.5 207.43,-50.21 217.41,-55.04 226.15,-59.59"/>
<polygon fill="black" stroke="black" points="224.25,-62.54 234.72,-64.19 227.56,-56.38 224.25,-62.54"/>
</g>
<!-- 2242112125840 -->
<g id="node14" class="node">
<title>2242112125840</title>
<polygon fill="none" stroke="black" points="308.25,-55.5 308.25,-91.5 515.25,-91.5 515.25,-55.5 308.25,-55.5"/>
<text xml:space="preserve" text-anchor="middle" x="331.25" y="-68.7" font-family="Times New Roman,serif" font-size="14.00">x2w2</text>
<polyline fill="none" stroke="black" points="354.25,-56 354.25,-91.5"/>
<text xml:space="preserve" text-anchor="middle" x="394.12" y="-68.7" font-family="Times New Roman,serif" font-size="14.00">data 0.0000</text>
<polyline fill="none" stroke="black" points="434,-56 434,-91.5"/>
<text xml:space="preserve" text-anchor="middle" x="474.62" y="-68.7" font-family="Times New Roman,serif" font-size="14.00">grad 0.0000</text>
</g>
<!-- 2242112125840&#45;&gt;2242113338400+ -->
<g id="edge10" class="edge">
<title>2242112125840&#45;&gt;2242113338400+</title>
<path fill="none" stroke="black" d="M515.33,-91.06C525.02,-92.72 534.18,-94.28 542.16,-95.65"/>
<polygon fill="black" stroke="black" points="541.32,-99.06 551.77,-97.29 542.5,-92.16 541.32,-99.06"/>
</g>
<!-- 2242112125840*&#45;&gt;2242112125840 -->
<g id="edge5" class="edge">
<title>2242112125840*&#45;&gt;2242112125840</title>
<path fill="none" stroke="black" d="M270.48,-73.5C277.65,-73.5 286.59,-73.5 296.47,-73.5"/>
<polygon fill="black" stroke="black" points="296.45,-77 306.45,-73.5 296.45,-70 296.45,-77"/>
</g>
</g>
</svg>
