<?xml version="1.0" encoding="UTF-8" standalone="no"?>
<!DOCTYPE svg PUBLIC "-//W3C//DTD SVG 1.1//EN"
 "http://www.w3.org/Graphics/SVG/1.1/DTD/svg11.dtd">
<!-- Generated by graphviz version 12.2.1 (20241206.2353)
 -->
<!-- Pages: 1 -->
<svg width="483pt" height="45pt"
 viewBox="0.00 0.00 482.75 45.00" xmlns="http://www.w3.org/2000/svg" xmlns:xlink="http://www.w3.org/1999/xlink">
<g id="graph0" class="graph" transform="scale(1 1) rotate(0) translate(4 41)">
<polygon fill="white" stroke="none" points="-4,4 -4,-41 478.75,-41 478.75,4 -4,4"/>
<!-- 2083158845984 -->
<g id="node1" class="node">
<title>2083158845984</title>
<polygon fill="none" stroke="black" points="291,-0.5 291,-36.5 474.75,-36.5 474.75,-0.5 291,-0.5"/>
<text text-anchor="middle" x="302.38" y="-13.7" font-family="Times New Roman,serif" font-size="14.00">b</text>
<polyline fill="none" stroke="black" points="313.75,-1 313.75,-36.5"/>
<text text-anchor="middle" x="353.62" y="-13.7" font-family="Times New Roman,serif" font-size="14.00">data 6.0000</text>
<polyline fill="none" stroke="black" points="393.5,-1 393.5,-36.5"/>
<text text-anchor="middle" x="434.12" y="-13.7" font-family="Times New Roman,serif" font-size="14.00">grad 1.0000</text>
</g>
<!-- 2083158845984+ -->
<g id="node2" class="node">
<title>2083158845984+</title>
<ellipse fill="none" stroke="black" cx="237" cy="-18.5" rx="18" ry="18"/>
<text text-anchor="middle" x="237" y="-13.45" font-family="Times New Roman,serif" font-size="14.00">+</text>
</g>
<!-- 2083158845984+&#45;&gt;2083158845984 -->
<g id="edge1" class="edge">
<title>2083158845984+&#45;&gt;2083158845984</title>
<path fill="none" stroke="black" d="M255.35,-18.5C262.05,-18.5 270.27,-18.5 279.29,-18.5"/>
<polygon fill="black" stroke="black" points="279.11,-22 289.11,-18.5 279.11,-15 279.11,-22"/>
</g>
<!-- 2084766514400 -->
<g id="node3" class="node">
<title>2084766514400</title>
<polygon fill="none" stroke="black" points="0,-0.5 0,-36.5 183,-36.5 183,-0.5 0,-0.5"/>
<text text-anchor="middle" x="11" y="-13.7" font-family="Times New Roman,serif" font-size="14.00">a</text>
<polyline fill="none" stroke="black" points="22,-1 22,-36.5"/>
<text text-anchor="middle" x="61.88" y="-13.7" font-family="Times New Roman,serif" font-size="14.00">data 3.0000</text>
<polyline fill="none" stroke="black" points="101.75,-1 101.75,-36.5"/>
<text text-anchor="middle" x="142.38" y="-13.7" font-family="Times New Roman,serif" font-size="14.00">grad 2.0000</text>
</g>
<!-- 2084766514400&#45;&gt;2083158845984+ -->
<g id="edge2" class="edge">
<title>2084766514400&#45;&gt;2083158845984+</title>
<path fill="none" stroke="black" d="M183.38,-18.5C191.83,-18.5 199.89,-18.5 207.06,-18.5"/>
<polygon fill="black" stroke="black" points="207.02,-22 217.02,-18.5 207.02,-15 207.02,-22"/>
</g>
</g>
</svg>
